<svg width="132" height="94" viewBox="0 0 132 94" fill="none" xmlns="http://www.w3.org/2000/svg">
<path d="M129.542 21.2306L76.615 0.427693C75.976 0.176593 75.2646 0.174971 74.6245 0.423909L24.1002 20.0657C23.0536 20.4728 22.3667 21.4777 22.3716 22.5943C22.3765 23.7114 23.0718 24.7104 24.122 25.1085L37.2123 30.0708L1.76151 58.1892C1.05696 58.7479 0.676809 59.6177 0.746421 60.511C0.816033 61.4043 1.3267 62.2052 2.10957 62.6493L21.5572 73.6825L12.9038 90.0387C12.2047 91.3598 12.7156 92.9943 14.0448 93.6889C14.4486 93.9 14.8815 94 15.3084 94C16.286 94 17.2306 93.4746 17.7174 92.5545L26.2835 76.3638L46.9357 88.0809C47.3526 88.3174 47.8179 88.4364 48.2839 88.4364C48.6937 88.4364 49.1046 88.3442 49.4837 88.1593C50.2932 87.7636 50.8528 86.9944 50.9771 86.1062L53.9997 64.5218L75.4183 72.9749C75.4765 72.9979 75.536 73.0163 75.5953 73.0355C75.6124 73.0409 75.629 73.0476 75.6464 73.0527C75.7568 73.0855 75.8686 73.1095 75.9812 73.1279C76.0116 73.1328 76.0423 73.1368 76.0731 73.1409C76.1805 73.1546 76.2879 73.1636 76.3956 73.1646C76.4045 73.1649 76.4135 73.1668 76.4225 73.1668C76.544 73.1668 76.6661 73.1557 76.7885 73.1387C76.8092 73.136 76.8296 73.1333 76.8502 73.1303C76.9685 73.1114 77.0865 73.086 77.2037 73.0509C77.2181 73.0465 77.232 73.0409 77.2464 73.0363C77.3087 73.0165 77.3707 72.9968 77.4321 72.9725L94.5083 66.1776C94.5189 66.2214 94.5287 66.2657 94.5418 66.3087L90.3517 85.321C90.1423 86.2711 90.4627 87.2593 91.1901 87.9093C91.6967 88.3623 92.3468 88.6021 93.0081 88.6021C93.2964 88.6021 93.5868 88.5567 93.8685 88.4631L108.093 83.7463C108.905 83.4771 109.542 82.8435 109.812 82.0364C110.083 81.2296 109.955 80.3428 109.468 79.6433L99.8503 65.8373C99.8584 65.7633 99.8652 65.6887 99.8674 65.613C99.8747 65.3295 99.8867 64.784 99.8943 64.0342L109.019 60.4031C110.051 59.9923 110.728 58.9987 110.728 57.8938V32.968L129.461 26.2883C130.526 25.9083 131.243 24.9123 131.261 23.7873C131.279 22.6629 130.594 21.6447 129.542 21.2306ZM46.1439 81.4075L8.28684 59.9293L54.2578 23.4668L46.1439 81.4075ZM73.7019 66.4817L54.7709 59.01L57.7324 37.8625L73.7019 43.924V66.4817ZM79.1406 66.4693V44.2319L91.9683 39.6575C93.7513 44.8914 94.3248 53.9732 94.4379 60.3823L79.1406 66.4693ZM102.933 79.7587L96.6883 81.8294L98.5358 73.4466L102.933 79.7587ZM105.289 56.0644L99.8358 58.2343C99.6566 52.1171 99.0293 43.6194 97.0598 37.8419L105.289 34.9077V56.0644ZM94.517 33.0053C88.7626 25.8226 74.8312 20.6571 74.2142 20.4314C72.8056 19.9146 71.2429 20.6317 70.7233 22.0321C70.2033 23.4322 70.9242 24.9863 72.3328 25.5034C75.7498 26.7581 84.4608 30.6006 88.9867 34.9777L76.8135 39.3183L58.5022 32.368L60.5844 17.4998C60.7377 16.4041 60.2042 15.3261 59.237 14.7785C58.27 14.2315 57.0649 14.3247 56.195 15.0145L42.1477 26.1562L32.6383 22.5516L75.61 5.84568L120.834 23.6216L94.517 33.0053Z" fill="#4359B2"/>
</svg>
