<svg width="66" height="65" viewBox="0 0 66 65" fill="none" xmlns="http://www.w3.org/2000/svg">
<path d="M44 34.625L65.7625 47.3188L56.4719 49.975L63.1125 61.4781L57.7 64.6031L51.0594 53.1031L44.1125 59.8219L44 34.625ZM37.75 12.75H44V19H59.625C60.4538 19 61.2487 19.3292 61.8347 19.9153C62.4208 20.5013 62.75 21.2962 62.75 22.125V34.625H56.5V25.25H25.25V56.5H37.75V62.75H22.125C21.2962 62.75 20.5013 62.4208 19.9153 61.8347C19.3292 61.2487 19 60.4538 19 59.625V44H12.75V37.75H19V22.125C19 21.2962 19.3292 20.5013 19.9153 19.9153C20.5013 19.3292 21.2962 19 22.125 19H37.75V12.75ZM6.5 37.75V44H0.25V37.75H6.5ZM6.5 25.25V31.5H0.25V25.25H6.5ZM6.5 12.75V19H0.25V12.75H6.5ZM6.5 0.25V6.5H0.25V0.25H6.5ZM19 0.25V6.5H12.75V0.25H19ZM31.5 0.25V6.5H25.25V0.25H31.5ZM44 0.25V6.5H37.75V0.25H44Z" fill="#4359B2"/>
</svg>
